<svg xmlns="http://www.w3.org/2000/svg" viewBox="0 0 64 64" width="64" height="64">
  <rect width="64" height="64" rx="12" fill="#efe7d6"/>
  <path d="M20 22c-5 4-8 12-4 22 3 7 12 11 22 8 10-3 16-13 12-24-3-8-11-12-19-11-4 .5-8 2-11 5z" fill="#8a5622"/>
  <path d="M22 25c-3 3-5 9-2 16 2 5 8 8 15 6 7-2 11-9 8-16-2-6-8-9-14-8-3 .3-5 1-7 2z" fill="#a06a30" opacity="0.55"/>
  <circle cx="26" cy="30" r="2.1" fill="#241d12" opacity="0.7"/>
  <circle cx="38" cy="26" r="1.7" fill="#241d12" opacity="0.7"/>
  <circle cx="42" cy="40" r="2" fill="#241d12" opacity="0.7"/>
  <circle cx="30" cy="44" r="1.6" fill="#241d12" opacity="0.7"/>
  <path d="M38 25c1-5 4-8 8-8" fill="none" stroke="#697a2b" stroke-width="3" stroke-linecap="round"/>
  <circle cx="46" cy="16" r="3" fill="#7d9134"/>
</svg>
